<svg xmlns="http://www.w3.org/2000/svg" xmlns:xlink="http://www.w3.org/1999/xlink" xmlns:lucid="lucid" width="1282" height="788.65"><g transform="translate(1771 661)" lucid:page-tab-id="0_0"><path d="M-2000-1000h1500V500h-1500z" fill="#fff"/><path d="M-1320-117.85h380v223h-380z" stroke="#333" stroke-width="2" fill="#fff"/><path d="M-1320-53.85h380" stroke="#333" stroke-width="2" fill="none"/><use xlink:href="#a" transform="matrix(1,0,0,1,-1312,-109.84929097418126) translate(117.08333333333333 16)"/><use xlink:href="#b" transform="matrix(1,0,0,1,-1312,-109.84929097418126) translate(86.88888888888889 40)"/><use xlink:href="#c" transform="matrix(1,0,0,1,-1312,-109.84929097418126) translate(178.8888888888889 40)"/><use xlink:href="#d" transform="matrix(1,0,0,1,-1308,-45.84929097418126) translate(0 55.783854166666664)"/><use xlink:href="#e" transform="matrix(1,0,0,1,-1308,-45.84929097418126) translate(21.763541666666665 55.783854166666664)"/><use xlink:href="#d" transform="matrix(1,0,0,1,-1308,-45.84929097418126) translate(0 76.32552083333333)"/><use xlink:href="#f" transform="matrix(1,0,0,1,-1308,-45.84929097418126) translate(21.763541666666665 76.32552083333333)"/><use xlink:href="#d" transform="matrix(1,0,0,1,-1308,-45.84929097418126) translate(0 96.8671875)"/><use xlink:href="#g" transform="matrix(1,0,0,1,-1308,-45.84929097418126) translate(21.763541666666665 96.8671875)"/><path d="M-1750-119.35h380v226h-380z" stroke="#333" stroke-width="2" fill="#fff"/><path d="M-1750-54.82h380" stroke="#333" stroke-width="2" fill="none"/><use xlink:href="#h" transform="matrix(1,0,0,1,-1742,-111.34929097418126) translate(116.36203703703704 16.41111111111111)"/><use xlink:href="#i" transform="matrix(1,0,0,1,-1742,-111.34929097418126) translate(87.32067901234569 40.67777777777778)"/><use xlink:href="#j" transform="matrix(1,0,0,1,-1742,-111.34929097418126) translate(202.64351851851853 40.67777777777778)"/><use xlink:href="#d" transform="matrix(1,0,0,1,-1738,-46.81595764084793) translate(0 57.283854166666664)"/><use xlink:href="#k" transform="matrix(1,0,0,1,-1738,-46.81595764084793) translate(21.763541666666665 57.283854166666664)"/><use xlink:href="#d" transform="matrix(1,0,0,1,-1738,-46.81595764084793) translate(0 77.82552083333333)"/><use xlink:href="#l" transform="matrix(1,0,0,1,-1738,-46.81595764084793) translate(21.763541666666665 77.82552083333333)"/><use xlink:href="#d" transform="matrix(1,0,0,1,-1738,-46.81595764084793) translate(0 98.3671875)"/><use xlink:href="#m" transform="matrix(1,0,0,1,-1738,-46.81595764084793) translate(21.763541666666665 98.3671875)"/><path d="M-890-117.85h380v223h-380z" stroke="#333" stroke-width="2" fill="#fff"/><path d="M-890-53.32h380" stroke="#333" stroke-width="2" fill="none"/><use xlink:href="#h" transform="matrix(1,0,0,1,-882,-109.84929097418126) translate(116.36203703703704 16.41111111111111)"/><use xlink:href="#n" transform="matrix(1,0,0,1,-882,-109.84929097418126) translate(75.52438271604939 40.67777777777778)"/><use xlink:href="#o" transform="matrix(1,0,0,1,-882,-109.84929097418126) translate(185.39845679012348 40.67777777777778)"/><use xlink:href="#p" transform="matrix(1,0,0,1,-882,-109.84929097418126) translate(214.55216049382716 40.67777777777778)"/><use xlink:href="#d" transform="matrix(1,0,0,1,-878,-45.31595764084793) translate(0 55.783854166666664)"/><use xlink:href="#q" transform="matrix(1,0,0,1,-878,-45.31595764084793) translate(21.763541666666665 55.783854166666664)"/><use xlink:href="#d" transform="matrix(1,0,0,1,-878,-45.31595764084793) translate(0 76.32552083333333)"/><use xlink:href="#r" transform="matrix(1,0,0,1,-878,-45.31595764084793) translate(21.763541666666665 76.32552083333333)"/><use xlink:href="#d" transform="matrix(1,0,0,1,-878,-45.31595764084793) translate(0 96.8671875)"/><use xlink:href="#s" transform="matrix(1,0,0,1,-878,-45.31595764084793) translate(21.763541666666665 96.8671875)"/><path d="M-1580-632a8 8 0 0 1 8-8h836.75a8 8 0 0 1 8 8v25.15a8 8 0 0 1-8 8H-1572a8 8 0 0 1-8-8z" stroke="#000" stroke-opacity="0" stroke-width="2" fill="#fff" fill-opacity="0"/><g><use xlink:href="#t" transform="matrix(1,0,0,1,-1575.9999999999995,-636) translate(213.44641975308645 25.782777777777778)"/><use xlink:href="#u" transform="matrix(1,0,0,1,-1575.9999999999995,-636) translate(340.04148148148147 25.782777777777778)"/><use xlink:href="#v" transform="matrix(1,0,0,1,-1575.9999999999995,-636) translate(485.42913580246915 25.782777777777778)"/><use xlink:href="#w" transform="matrix(1,0,0,1,-1575.9999999999995,-636) translate(579.901975308642 25.782777777777778)"/></g><path d="M-1303.52-600.2h309.36M-1303.5-600.2h-1.02M-994.18-600.2h1.02" stroke="#a9afb8" stroke-width="2" fill="none"/><path d="M-1580-590.85a8 8 0 0 1 8-8h837.7a8 8 0 0 1 8 8v2.85a8 8 0 0 1-8 8H-1572a8 8 0 0 1-8-8z" stroke="#000" stroke-opacity="0" stroke-width="2" fill="#fff" fill-opacity="0"/><g><use xlink:href="#x" transform="matrix(1,0,0,1,-1575.999999999999,-594.8447760431012) translate(289.49312757201653 14.917037037037037)"/><use xlink:href="#y" transform="matrix(1,0,0,1,-1575.999999999999,-594.8447760431012) translate(348.00146090534986 14.917037037037037)"/><use xlink:href="#z" transform="matrix(1,0,0,1,-1575.999999999999,-594.8447760431012) translate(369.24631687242805 14.917037037037037)"/><use xlink:href="#A" transform="matrix(1,0,0,1,-1575.999999999999,-594.8447760431012) translate(406.5522839506174 14.917037037037037)"/><use xlink:href="#B" transform="matrix(1,0,0,1,-1575.999999999999,-594.8447760431012) translate(453.8008436213992 14.917037037037037)"/><use xlink:href="#C" transform="matrix(1,0,0,1,-1575.999999999999,-594.8447760431012) translate(466.250329218107 14.917037037037037)"/><use xlink:href="#D" transform="matrix(1,0,0,1,-1575.999999999999,-594.8447760431012) translate(503.64127572016463 14.917037037037037)"/><use xlink:href="#E" transform="matrix(1,0,0,1,-1575.999999999999,-594.8447760431012) translate(529.1351028806585 14.917037037037037)"/></g><path d="M-1320-520h380v264h-380z" stroke="#333" stroke-width="2" fill="#fff"/><path d="M-1320-479.73h380" stroke="#333" stroke-width="2" fill="none"/><g><use xlink:href="#F" transform="matrix(1,0,0,1,-1312,-512) translate(148.38055555555556 16.544444444444444)"/></g><g><use xlink:href="#d" transform="matrix(1,0,0,1,-1308,-471.73333333333335) translate(0 27.158854166666693)"/><use xlink:href="#k" transform="matrix(1,0,0,1,-1308,-471.73333333333335) translate(21.763541666666665 27.158854166666693)"/><use xlink:href="#d" transform="matrix(1,0,0,1,-1308,-471.73333333333335) translate(0 47.70052083333336)"/><use xlink:href="#l" transform="matrix(1,0,0,1,-1308,-471.73333333333335) translate(21.763541666666665 47.70052083333336)"/><use xlink:href="#d" transform="matrix(1,0,0,1,-1308,-471.73333333333335) translate(0 68.24218750000003)"/><use xlink:href="#G" transform="matrix(1,0,0,1,-1308,-471.73333333333335) translate(21.763541666666665 68.24218750000003)"/><use xlink:href="#d" transform="matrix(1,0,0,1,-1308,-471.73333333333335) translate(0 88.7838541666667)"/><use xlink:href="#e" transform="matrix(1,0,0,1,-1308,-471.73333333333335) translate(21.763541666666665 88.7838541666667)"/><use xlink:href="#d" transform="matrix(1,0,0,1,-1308,-471.73333333333335) translate(0 109.32552083333336)"/><use xlink:href="#f" transform="matrix(1,0,0,1,-1308,-471.73333333333335) translate(21.763541666666665 109.32552083333336)"/><use xlink:href="#d" transform="matrix(1,0,0,1,-1308,-471.73333333333335) translate(0 129.8671875)"/><use xlink:href="#H" transform="matrix(1,0,0,1,-1308,-471.73333333333335) translate(21.763541666666665 129.8671875)"/><use xlink:href="#d" transform="matrix(1,0,0,1,-1308,-471.73333333333335) translate(0 150.40885416666666)"/><use xlink:href="#q" transform="matrix(1,0,0,1,-1308,-471.73333333333335) translate(21.763541666666665 150.40885416666666)"/><use xlink:href="#d" transform="matrix(1,0,0,1,-1308,-471.73333333333335) translate(0 170.95052083333331)"/><use xlink:href="#r" transform="matrix(1,0,0,1,-1308,-471.73333333333335) translate(21.763541666666665 170.95052083333331)"/><use xlink:href="#d" transform="matrix(1,0,0,1,-1308,-471.73333333333335) translate(0 191.49218749999997)"/><use xlink:href="#s" transform="matrix(1,0,0,1,-1308,-471.73333333333335) translate(21.763541666666665 191.49218749999997)"/></g><path d="M-1130-199.96v62.6M-1130-200.96" stroke="#5e5e5e" stroke-width="2" fill="none"/><path d="M-1130-122.1l-4.63-14.25h9.27z" stroke="#5e5e5e" stroke-width="2" fill="#5e5e5e"/><path d="M-1130-254v53.15a6 6 0 0 0 6 6h418a6 6 0 0 1 6 6v51.5" stroke="#5e5e5e" stroke-width="2" fill="none"/><path d="M-1129.03-253.97h-1.94V-255h1.94z" stroke="#5e5e5e" stroke-width=".05" fill="#5e5e5e"/><path d="M-700-122.08l-4.63-14.27h9.26z" stroke="#5e5e5e" stroke-width="2" fill="#5e5e5e"/><path d="M-1130-254v53.15a6 6 0 0 1-6 6h-418a6 6 0 0 0-6 6v50" stroke="#5e5e5e" stroke-width="2" fill="none"/><path d="M-1129.03-253.97h-1.94V-255h1.94z" stroke="#5e5e5e" stroke-width=".05" fill="#5e5e5e"/><path d="M-1560-123.58l-4.63-14.27h9.27z" stroke="#5e5e5e" stroke-width="2" fill="#5e5e5e"/><defs><path fill="#333" d="M15-91v-56l181-69v40L49-119l147 57v40" id="I"/><path fill="#333" d="M25-224v-37h50v37H25zM25 0v-190h50V0H25" id="J"/><path fill="#333" d="M135-194c87-1 58 113 63 194h-50c-7-57 23-157-34-157-59 0-34 97-39 157H25l-1-190h47c2 12-1 28 3 38 12-26 28-41 61-42" id="K"/><path fill="#333" d="M115-3C79 11 28 4 28-45v-112H4v-33h27l15-45h31v45h36v33H77v99c-1 23 16 31 38 25v30" id="L"/><path fill="#333" d="M185-48c-13 30-37 53-82 52C43 2 14-33 14-96s30-98 90-98c62 0 83 45 84 108H66c0 31 8 55 39 56 18 0 30-7 34-22zm-45-69c5-46-57-63-70-21-2 6-4 13-4 21h74" id="M"/><path fill="#333" d="M135-150c-39-12-60 13-60 57V0H25l-1-190h47c2 13-1 29 3 40 6-28 27-53 61-41v41" id="N"/><path fill="#333" d="M121-226c-27-7-43 5-38 36h38v33H83V0H34v-157H6v-33h28c-9-59 32-81 87-68v32" id="O"/><path fill="#333" d="M133-34C117-15 103 5 69 4 32 3 11-16 11-54c-1-60 55-63 116-61 1-26-3-47-28-47-18 1-26 9-28 27l-52-2c7-38 36-58 82-57s74 22 75 68l1 82c-1 14 12 18 25 15v27c-30 8-71 5-69-32zm-48 3c29 0 43-24 42-57-32 0-66-3-65 30 0 17 8 27 23 27" id="P"/><path fill="#333" d="M190-63c-7 42-38 67-86 67-59 0-84-38-90-98-12-110 154-137 174-36l-49 2c-2-19-15-32-35-32-30 0-35 28-38 64-6 74 65 87 74 30" id="Q"/><path fill="#333" d="M15-22v-40l146-57-146-57v-40l181 69v56" id="R"/><g id="a"><use transform="matrix(0.05555555555555555,0,0,0.05555555555555555,0,0)" xlink:href="#I"/><use transform="matrix(0.05555555555555555,0,0,0.05555555555555555,11.666666666666666,0)" xlink:href="#I"/><use transform="matrix(0.05555555555555555,0,0,0.05555555555555555,23.333333333333332,0)" xlink:href="#J"/><use transform="matrix(0.05555555555555555,0,0,0.05555555555555555,28.888888888888886,0)" xlink:href="#K"/><use transform="matrix(0.05555555555555555,0,0,0.05555555555555555,41.05555555555555,0)" xlink:href="#L"/><use transform="matrix(0.05555555555555555,0,0,0.05555555555555555,47.66666666666666,0)" xlink:href="#M"/><use transform="matrix(0.05555555555555555,0,0,0.05555555555555555,58.77777777777777,0)" xlink:href="#N"/><use transform="matrix(0.05555555555555555,0,0,0.05555555555555555,66.55555555555554,0)" xlink:href="#O"/><use transform="matrix(0.05555555555555555,0,0,0.05555555555555555,73.16666666666666,0)" xlink:href="#P"/><use transform="matrix(0.05555555555555555,0,0,0.05555555555555555,84.27777777777777,0)" xlink:href="#Q"/><use transform="matrix(0.05555555555555555,0,0,0.05555555555555555,95.38888888888889,0)" xlink:href="#M"/><use transform="matrix(0.05555555555555555,0,0,0.05555555555555555,106.5,0)" xlink:href="#R"/><use transform="matrix(0.05555555555555555,0,0,0.05555555555555555,118.16666666666666,0)" xlink:href="#R"/></g><path fill="#333" d="M199 0l-22-63H83L61 0H9l90-248h61L250 0h-51zm-33-102l-36-108c-10 38-24 72-36 108h72" id="S"/><path fill="#333" d="M135-194c53 0 70 44 70 98 0 56-19 98-73 100-31 1-45-17-59-34 3 33 2 69 2 105H25l-1-265h48c2 10 0 23 3 31 11-24 29-35 60-35zM114-30c33 0 39-31 40-66 0-38-9-64-40-64-56 0-55 130 0 130" id="T"/><path fill="#333" d="M25 0v-261h50V0H25" id="U"/><path fill="#333" d="M114-157C55-157 80-60 75 0H25v-261h50l-1 109c12-26 28-41 61-42 86-1 58 113 63 194h-50c-7-57 23-157-34-157" id="V"/><path fill="#333" d="M110-194c64 0 96 36 96 99 0 64-35 99-97 99-61 0-95-36-95-99 0-62 34-99 96-99zm-1 164c35 0 45-28 45-65 0-40-10-65-43-65-34 0-45 26-45 65 0 36 10 65 43 65" id="W"/><g id="b"><use transform="matrix(0.05555555555555555,0,0,0.05555555555555555,0,0)" xlink:href="#S"/><use transform="matrix(0.05555555555555555,0,0,0.05555555555555555,14.388888888888888,0)" xlink:href="#T"/><use transform="matrix(0.05555555555555555,0,0,0.05555555555555555,26.555555555555554,0)" xlink:href="#P"/><use transform="matrix(0.05555555555555555,0,0,0.05555555555555555,37.666666666666664,0)" xlink:href="#N"/><use transform="matrix(0.05555555555555555,0,0,0.05555555555555555,45.44444444444444,0)" xlink:href="#M"/><use transform="matrix(0.05555555555555555,0,0,0.05555555555555555,56.55555555555556,0)" xlink:href="#U"/><use transform="matrix(0.05555555555555555,0,0,0.05555555555555555,62.11111111111112,0)" xlink:href="#V"/><use transform="matrix(0.05555555555555555,0,0,0.05555555555555555,74.27777777777779,0)" xlink:href="#W"/></g><path fill="#333" d="M136-208V0H84v-208H4v-40h212v40h-80" id="X"/><path fill="#333" d="M110-194c64 0 96 36 96 99 0 64-35 99-97 99-61 0-95-36-95-99 0-62 34-99 96-99zm-1 164c35 0 45-28 45-65 0-40-10-65-43-65-34 0-45 26-45 65 0 36 10 65 43 65zm66-183v5h-28c-13-11-23-24-37-34l-37 34H45c9-26 32-39 45-61h41" id="Y"/><g id="c"><use transform="matrix(0.05555555555555555,0,0,0.05555555555555555,0,0)" xlink:href="#X"/><use transform="matrix(0.05555555555555555,0,0,0.05555555555555555,10.666666666666666,0)" xlink:href="#M"/><use transform="matrix(0.05555555555555555,0,0,0.05555555555555555,21.77777777777778,0)" xlink:href="#U"/><use transform="matrix(0.05555555555555555,0,0,0.05555555555555555,27.333333333333336,0)" xlink:href="#M"/><use transform="matrix(0.05555555555555555,0,0,0.05555555555555555,38.44444444444444,0)" xlink:href="#O"/><use transform="matrix(0.05555555555555555,0,0,0.05555555555555555,45.05555555555556,0)" xlink:href="#Y"/><use transform="matrix(0.05555555555555555,0,0,0.05555555555555555,57.22222222222222,0)" xlink:href="#K"/><use transform="matrix(0.05555555555555555,0,0,0.05555555555555555,69.38888888888889,0)" xlink:href="#J"/><use transform="matrix(0.05555555555555555,0,0,0.05555555555555555,74.94444444444444,0)" xlink:href="#Q"/><use transform="matrix(0.05555555555555555,0,0,0.05555555555555555,86.05555555555556,0)" xlink:href="#W"/></g><path d="M687-608v428H540v-428H116v-146h424v-428h147v428h424v146H687" id="Z"/><use transform="matrix(0.008854166666666666,0,0,0.008854166666666666,0,0)" xlink:href="#Z" id="d"/><path d="M659-142h380L1011 0H29l28-142h422l233-1200H423l27-142h469" id="aa"/><path d="M668-142h380L1020 0H38l28-142h422l155-798H324l27-142h499zm23-1150l37-192h200l-37 192H691" id="ab"/><path d="M940-897c13-60 29-133 48-185h171c-77 342-140 701-210 1050-56 281-202 456-521 456-206 0-338-74-349-267l189-25c4 106 77 157 192 156 278-2 302-269 347-509h-2C725-106 614-12 421-12c-211 0-301-105-301-316 0-334 99-623 338-734 55-26 121-37 194-37 155 0 253 77 285 202h3zM384-742c-65 178-183 620 124 597 157-12 241-101 302-217 41-78 77-217 77-335 0-159-63-268-216-268-166 0-240 95-287 223" id="ac"/><path d="M948-272c-17 76-19 161 70 161 21 0 42-3 60-7L1056-6c-45 10-88 14-142 16-138 6-175-86-155-217h-6C661-83 550 15 337 20 138 24 42-104 82-302c49-247 238-349 523-354l236-4c9-47 22-94 22-148 0-118-65-155-184-157-151-3-231 57-266 172l-185-17c67-189 220-292 480-292 245 0 377 119 330 364zm-678-27c-21 109 31 185 140 182 176-5 282-102 348-217 37-66 43-123 59-200-145 7-304-9-409 44-71 36-119 96-138 191" id="ad"/><path d="M523-832c93-143 191-271 425-270 69 0 147 7 203 17l-33 167c-114-19-266-34-366 15-148 73-248 213-284 395L369 0H189l136-701c21-116 30-253 22-381h171c8 76 8 174 0 250h5" id="ae"/><path d="M1074-1484C764-1178 497-826 497-240c0 287 95 480 206 665H513C401 244 309 50 309-234c0-588 264-946 575-1250h190" id="af"/><path d="M915-832c0 594-261 950-575 1257H148C458 120 728-231 728-816c0-288-97-482-209-668h192c111 180 204 370 204 652" id="ag"/><g id="e"><use transform="matrix(0.008854166666666666,0,0,0.008854166666666666,0,0)" xlink:href="#aa"/><use transform="matrix(0.008854166666666666,0,0,0.008854166666666666,10.881770833333333,0)" xlink:href="#ab"/><use transform="matrix(0.008854166666666666,0,0,0.008854166666666666,21.763541666666665,0)" xlink:href="#ac"/><use transform="matrix(0.008854166666666666,0,0,0.008854166666666666,32.645312499999996,0)" xlink:href="#ad"/><use transform="matrix(0.008854166666666666,0,0,0.008854166666666666,43.52708333333333,0)" xlink:href="#ae"/><use transform="matrix(0.008854166666666666,0,0,0.008854166666666666,54.408854166666664,0)" xlink:href="#af"/><use transform="matrix(0.008854166666666666,0,0,0.008854166666666666,65.29062499999999,0)" xlink:href="#ag"/></g><path d="M574 16c-199 5-309-85-269-285l131-671H268l27-142h170l113-282h120l-55 282h432l-27 142H616c-43 233-105 457-132 696-16 144 198 111 324 99 46-6 96-14 136-22L918-30C819-5 700 13 574 16" id="ah"/><path d="M726-1102c256 0 385 126 386 379 1 67-11 147-25 220H315c-7 39-13 78-13 121 2 164 74 267 238 267 154 0 260-65 317-166l149 45C916-82 760 20 514 20c-259 0-398-131-398-390 0-357 148-615 421-704 62-20 125-28 189-28zm202 461c22-192-41-335-226-328-212 9-312 142-358 328h584" id="ai"/><path d="M815-1102c202-2 311 102 279 314-40 267-101 525-150 788H763l135-695c7-39 11-71 11-98 2-119-62-175-179-170-208 9-312 151-348 336L260 0H80c67-361 144-713 204-1082h170c-6 58-17 130-28 185h3c86-116 194-203 386-205" id="aj"/><path d="M772 0c2-57 14-121 24-174h-5C708-49 608 26 420 26 203 26 113-90 112-311c0-65 8-138 24-221 74-377 241-566 502-566 165 0 259 55 298 184 37-190 73-380 110-570h180C1133-988 1028-504 944 0H772zm109-648c26-189-33-326-219-317-242 11-291 213-338 427-15 68-22 130-23 201 1 149 51 224 193 224 258 0 321-215 372-441 8-34 12-65 15-94" id="ak"/><g id="f"><use transform="matrix(0.008854166666666666,0,0,0.008854166666666666,0,0)" xlink:href="#ad"/><use transform="matrix(0.008854166666666666,0,0,0.008854166666666666,10.881770833333333,0)" xlink:href="#ah"/><use transform="matrix(0.008854166666666666,0,0,0.008854166666666666,21.763541666666665,0)" xlink:href="#ai"/><use transform="matrix(0.008854166666666666,0,0,0.008854166666666666,32.645312499999996,0)" xlink:href="#aj"/><use transform="matrix(0.008854166666666666,0,0,0.008854166666666666,43.52708333333333,0)" xlink:href="#ak"/><use transform="matrix(0.008854166666666666,0,0,0.008854166666666666,54.408854166666664,0)" xlink:href="#ai"/><use transform="matrix(0.008854166666666666,0,0,0.008854166666666666,65.29062499999999,0)" xlink:href="#ae"/><use transform="matrix(0.008854166666666666,0,0,0.008854166666666666,76.17239583333333,0)" xlink:href="#af"/><use transform="matrix(0.008854166666666666,0,0,0.008854166666666666,87.05416666666666,0)" xlink:href="#ag"/></g><path d="M522 20c-267 0-410-127-410-389 0-365 156-619 438-707 169-53 390-23 481 68 54 54 92 128 93 229l-194 14c0-132-80-198-224-196-263 3-339 192-386 415-13 63-19 121-19 174-1 166 74 255 240 253 161-2 266-84 309-215l188 12C961-121 793 20 522 20" id="al"/><path d="M1031-970c-23-138-92-244-250-244-306 0-381 266-440 533-17 75-25 147-25 229 1 197 73 317 266 317 202 0 293-151 377-282l146 65C986-167 844 20 550 20c-297 0-434-170-434-467 0-413 147-747 446-877 112-49 299-63 420-18 132 49 200 159 229 307" id="am"/><path d="M724-1102c292 0 423 159 388 460-35 307-154 537-400 628-65 24-136 34-212 34-254-2-388-131-388-387 0-255 97-480 226-595 103-92 231-140 386-140zM381-747C294-559 211-98 524-113c294-14 359-254 399-525 28-194-32-337-222-331-174 5-260 94-320 222" id="an"/><path d="M608 0H410L167-1349h201c58 394 137 767 175 1181 194-409 422-787 631-1181h201" id="ao"/><path d="M42 0l27-137 837-806H265l27-139h844l-26 137-839 806h719L963 0H42" id="ap"/><g id="g"><use transform="matrix(0.008854166666666666,0,0,0.008854166666666666,0,0)" xlink:href="#ab"/><use transform="matrix(0.008854166666666666,0,0,0.008854166666666666,10.881770833333333,0)" xlink:href="#aj"/><use transform="matrix(0.008854166666666666,0,0,0.008854166666666666,21.763541666666665,0)" xlink:href="#ab"/><use transform="matrix(0.008854166666666666,0,0,0.008854166666666666,32.645312499999996,0)" xlink:href="#al"/><use transform="matrix(0.008854166666666666,0,0,0.008854166666666666,43.52708333333333,0)" xlink:href="#ab"/><use transform="matrix(0.008854166666666666,0,0,0.008854166666666666,54.408854166666664,0)" xlink:href="#ad"/><use transform="matrix(0.008854166666666666,0,0,0.008854166666666666,65.29062499999999,0)" xlink:href="#ae"/><use transform="matrix(0.008854166666666666,0,0,0.008854166666666666,76.17239583333333,0)" xlink:href="#am"/><use transform="matrix(0.008854166666666666,0,0,0.008854166666666666,87.05416666666666,0)" xlink:href="#an"/><use transform="matrix(0.008854166666666666,0,0,0.008854166666666666,97.9359375,0)" xlink:href="#ae"/><use transform="matrix(0.008854166666666666,0,0,0.008854166666666666,108.81770833333333,0)" xlink:href="#ae"/><use transform="matrix(0.008854166666666666,0,0,0.008854166666666666,119.69947916666666,0)" xlink:href="#ai"/><use transform="matrix(0.008854166666666666,0,0,0.008854166666666666,130.58124999999998,0)" xlink:href="#ab"/><use transform="matrix(0.008854166666666666,0,0,0.008854166666666666,141.4630208333333,0)" xlink:href="#an"/><use transform="matrix(0.008854166666666666,0,0,0.008854166666666666,152.34479166666662,0)" xlink:href="#ao"/><use transform="matrix(0.008854166666666666,0,0,0.008854166666666666,163.22656249999994,0)" xlink:href="#an"/><use transform="matrix(0.008854166666666666,0,0,0.008854166666666666,174.10833333333326,0)" xlink:href="#ap"/><use transform="matrix(0.008854166666666666,0,0,0.008854166666666666,184.99010416666658,0)" xlink:href="#af"/><use transform="matrix(0.008854166666666666,0,0,0.008854166666666666,195.8718749999999,0)" xlink:href="#ag"/></g><g id="h"><use transform="matrix(0.056172839506172835,0,0,0.056172839506172835,0,0)" xlink:href="#I"/><use transform="matrix(0.056172839506172835,0,0,0.056172839506172835,11.796296296296296,0)" xlink:href="#I"/><use transform="matrix(0.056172839506172835,0,0,0.056172839506172835,23.59259259259259,0)" xlink:href="#J"/><use transform="matrix(0.056172839506172835,0,0,0.056172839506172835,29.209876543209873,0)" xlink:href="#K"/><use transform="matrix(0.056172839506172835,0,0,0.056172839506172835,41.51172839506172,0)" xlink:href="#L"/><use transform="matrix(0.056172839506172835,0,0,0.056172839506172835,48.19629629629629,0)" xlink:href="#M"/><use transform="matrix(0.056172839506172835,0,0,0.056172839506172835,59.430864197530845,0)" xlink:href="#N"/><use transform="matrix(0.056172839506172835,0,0,0.056172839506172835,67.29506172839505,0)" xlink:href="#O"/><use transform="matrix(0.056172839506172835,0,0,0.056172839506172835,73.97962962962963,0)" xlink:href="#P"/><use transform="matrix(0.056172839506172835,0,0,0.056172839506172835,85.2141975308642,0)" xlink:href="#Q"/><use transform="matrix(0.056172839506172835,0,0,0.056172839506172835,96.44876543209877,0)" xlink:href="#M"/><use transform="matrix(0.056172839506172835,0,0,0.056172839506172835,107.68333333333334,0)" xlink:href="#R"/><use transform="matrix(0.056172839506172835,0,0,0.056172839506172835,119.47962962962961,0)" xlink:href="#R"/></g><path fill="#333" d="M240-174c0 40-23 61-54 70L253 0h-59l-57-94H76V0H24v-248c93 4 217-23 216 74zM76-134c48-2 112 12 112-38 0-48-66-32-112-35v73" id="aq"/><path fill="#333" d="M88-194c31-1 46 15 58 34l-1-101h50l1 261h-48c-2-10 0-23-3-31C134-8 116 4 84 4 32 4 16-41 15-95c0-56 19-97 73-99zm17 164c33 0 40-30 41-66 1-37-9-64-41-64s-38 30-39 65c0 43 13 65 39 65" id="ar"/><path fill="#333" d="M85 4C-2 5 27-109 22-190h50c7 57-23 150 33 157 60-5 35-97 40-157h50l1 190h-47c-2-12 1-28-3-38-12 25-28 42-61 42" id="as"/><g id="i"><use transform="matrix(0.056172839506172835,0,0,0.056172839506172835,0,0)" xlink:href="#aq"/><use transform="matrix(0.056172839506172835,0,0,0.056172839506172835,14.548765432098763,0)" xlink:href="#M"/><use transform="matrix(0.056172839506172835,0,0,0.056172839506172835,25.78333333333333,0)" xlink:href="#T"/><use transform="matrix(0.056172839506172835,0,0,0.056172839506172835,38.08518518518518,0)" xlink:href="#N"/><use transform="matrix(0.056172839506172835,0,0,0.056172839506172835,45.94938271604938,0)" xlink:href="#W"/><use transform="matrix(0.056172839506172835,0,0,0.056172839506172835,58.25123456790123,0)" xlink:href="#ar"/><use transform="matrix(0.056172839506172835,0,0,0.056172839506172835,70.55308641975307,0)" xlink:href="#as"/><use transform="matrix(0.056172839506172835,0,0,0.056172839506172835,82.85493827160492,0)" xlink:href="#L"/><use transform="matrix(0.056172839506172835,0,0,0.056172839506172835,89.5395061728395,0)" xlink:href="#W"/><use transform="matrix(0.056172839506172835,0,0,0.056172839506172835,101.84135802469135,0)" xlink:href="#N"/></g><path fill="#333" d="M230 0l2-204L168 0h-37L68-204 70 0H24v-248h70l56 185 57-185h69V0h-46" id="at"/><path fill="#333" d="M137-138c1-29-70-34-71-4 15 46 118 7 119 86 1 83-164 76-172 9l43-7c4 19 20 25 44 25 33 8 57-30 24-41C81-84 22-81 20-136c-2-80 154-74 161-7" id="au"/><g id="j"><use transform="matrix(0.056172839506172835,0,0,0.056172839506172835,0,0)" xlink:href="#at"/><use transform="matrix(0.056172839506172835,0,0,0.056172839506172835,16.795679012345676,0)" xlink:href="#as"/><use transform="matrix(0.056172839506172835,0,0,0.056172839506172835,29.097530864197527,0)" xlink:href="#au"/><use transform="matrix(0.056172839506172835,0,0,0.056172839506172835,40.33209876543209,0)" xlink:href="#J"/><use transform="matrix(0.056172839506172835,0,0,0.056172839506172835,45.94938271604938,0)" xlink:href="#Q"/><use transform="matrix(0.056172839506172835,0,0,0.056172839506172835,57.18395061728394,0)" xlink:href="#P"/><use transform="matrix(0.056172839506172835,0,0,0.056172839506172835,68.41851851851851,0)" xlink:href="#U"/></g><g id="k"><use transform="matrix(0.008854166666666666,0,0,0.008854166666666666,0,0)" xlink:href="#ah"/><use transform="matrix(0.008854166666666666,0,0,0.008854166666666666,10.881770833333333,0)" xlink:href="#an"/><use transform="matrix(0.008854166666666666,0,0,0.008854166666666666,21.763541666666665,0)" xlink:href="#al"/><use transform="matrix(0.008854166666666666,0,0,0.008854166666666666,32.645312499999996,0)" xlink:href="#ad"/><use transform="matrix(0.008854166666666666,0,0,0.008854166666666666,43.52708333333333,0)" xlink:href="#ae"/><use transform="matrix(0.008854166666666666,0,0,0.008854166666666666,54.408854166666664,0)" xlink:href="#af"/><use transform="matrix(0.008854166666666666,0,0,0.008854166666666666,65.29062499999999,0)" xlink:href="#ag"/></g><path d="M808-1104c255 0 336 185 302 442-38 281-118 532-328 640-56 28-120 42-193 42-158 0-262-57-295-184-10-1-5 5-7 18-33 194-73 381-109 571H-3C92-78 198-570 284-1082h175c-4 58-14 124-24 178h4c78-115 178-200 369-200zM343-350c-1 156 68 242 223 237 244-7 292-220 339-433 43-194 50-428-171-419-257 11-321 210-371 441-15 68-20 127-20 174" id="av"/><path d="M419 20c-186 0-282-64-284-243 0-40 5-86 15-138l140-721h180c-47 251-101 497-144 752-25 145 40 219 181 211 211-12 308-150 344-336l122-627h181C1087-721 1010-369 950 0H780c6-58 18-129 28-185h-3C720-71 616 20 419 20" id="aw"/><path d="M706-965c-176 0-278 51-278 181 0 125 156 122 261 155 163 51 371 93 326 320C971-85 782 18 512 20c-227 2-392-53-402-268l165-31c1 144 117 166 263 165 166-2 306-45 306-201 0-97-96-115-178-141-139-45-315-63-388-174-17-26-26-59-26-98 0-260 204-371 480-371 203 0 355 61 361 260l-166 20c2-122-100-146-221-146" id="ax"/><g id="l"><use transform="matrix(0.008854166666666666,0,0,0.008854166666666666,0,0)" xlink:href="#av"/><use transform="matrix(0.008854166666666666,0,0,0.008854166666666666,10.881770833333333,0)" xlink:href="#ad"/><use transform="matrix(0.008854166666666666,0,0,0.008854166666666666,21.763541666666665,0)" xlink:href="#aw"/><use transform="matrix(0.008854166666666666,0,0,0.008854166666666666,32.645312499999996,0)" xlink:href="#ax"/><use transform="matrix(0.008854166666666666,0,0,0.008854166666666666,43.52708333333333,0)" xlink:href="#ad"/><use transform="matrix(0.008854166666666666,0,0,0.008854166666666666,54.408854166666664,0)" xlink:href="#ae"/><use transform="matrix(0.008854166666666666,0,0,0.008854166666666666,65.29062499999999,0)" xlink:href="#af"/><use transform="matrix(0.008854166666666666,0,0,0.008854166666666666,76.17239583333333,0)" xlink:href="#ag"/></g><path d="M832 0c78-390 148-786 233-1169-124 253-264 488-400 729H528c-43-241-94-472-121-729C339-774 258-390 184 0H24l262-1349h237c39 239 98 457 113 720 117-256 262-480 395-720h225L994 0H832" id="ay"/><g id="m"><use transform="matrix(0.008854166666666666,0,0,0.008854166666666666,0,0)" xlink:href="#ax"/><use transform="matrix(0.008854166666666666,0,0,0.008854166666666666,10.881770833333333,0)" xlink:href="#ai"/><use transform="matrix(0.008854166666666666,0,0,0.008854166666666666,21.763541666666665,0)" xlink:href="#aa"/><use transform="matrix(0.008854166666666666,0,0,0.008854166666666666,32.645312499999996,0)" xlink:href="#ai"/><use transform="matrix(0.008854166666666666,0,0,0.008854166666666666,43.52708333333333,0)" xlink:href="#al"/><use transform="matrix(0.008854166666666666,0,0,0.008854166666666666,54.408854166666664,0)" xlink:href="#ab"/><use transform="matrix(0.008854166666666666,0,0,0.008854166666666666,65.29062499999999,0)" xlink:href="#an"/><use transform="matrix(0.008854166666666666,0,0,0.008854166666666666,76.17239583333333,0)" xlink:href="#aj"/><use transform="matrix(0.008854166666666666,0,0,0.008854166666666666,87.05416666666666,0)" xlink:href="#ad"/><use transform="matrix(0.008854166666666666,0,0,0.008854166666666666,97.9359375,0)" xlink:href="#ae"/><use transform="matrix(0.008854166666666666,0,0,0.008854166666666666,108.81770833333333,0)" xlink:href="#ay"/><use transform="matrix(0.008854166666666666,0,0,0.008854166666666666,119.69947916666666,0)" xlink:href="#aw"/><use transform="matrix(0.008854166666666666,0,0,0.008854166666666666,130.58124999999998,0)" xlink:href="#ax"/><use transform="matrix(0.008854166666666666,0,0,0.008854166666666666,141.4630208333333,0)" xlink:href="#ab"/><use transform="matrix(0.008854166666666666,0,0,0.008854166666666666,152.34479166666662,0)" xlink:href="#al"/><use transform="matrix(0.008854166666666666,0,0,0.008854166666666666,163.22656249999994,0)" xlink:href="#ad"/><use transform="matrix(0.008854166666666666,0,0,0.008854166666666666,174.10833333333326,0)" xlink:href="#af"/><use transform="matrix(0.008854166666666666,0,0,0.008854166666666666,184.99010416666658,0)" xlink:href="#ag"/></g><path fill="#333" d="M175 0L67-191c6 58 2 128 3 191H24v-248h59L193-55c-6-58-2-129-3-193h46V0h-61" id="az"/><path fill="#333" d="M128 0H69L1-190h53L99-40l48-150h52" id="aA"/><path fill="#333" d="M195-6C206 82 75 100 31 46c-4-6-6-13-8-21l49-6c3 16 16 24 34 25 40 0 42-37 40-79-11 22-30 35-61 35-53 0-70-43-70-97 0-56 18-96 73-97 30 0 46 14 59 34l2-30h47zm-90-29c32 0 41-27 41-63 0-35-9-62-40-62-32 0-39 29-40 63 0 36 9 62 39 62" id="aB"/><g id="n"><use transform="matrix(0.056172839506172835,0,0,0.056172839506172835,0,0)" xlink:href="#az"/><use transform="matrix(0.056172839506172835,0,0,0.056172839506172835,14.548765432098763,0)" xlink:href="#P"/><use transform="matrix(0.056172839506172835,0,0,0.056172839506172835,25.78333333333333,0)" xlink:href="#aA"/><use transform="matrix(0.056172839506172835,0,0,0.056172839506172835,37.0179012345679,0)" xlink:href="#M"/><use transform="matrix(0.056172839506172835,0,0,0.056172839506172835,48.25246913580247,0)" xlink:href="#aB"/><use transform="matrix(0.056172839506172835,0,0,0.056172839506172835,60.554320987654314,0)" xlink:href="#P"/><use transform="matrix(0.056172839506172835,0,0,0.056172839506172835,71.78888888888889,0)" xlink:href="#ar"/><use transform="matrix(0.056172839506172835,0,0,0.056172839506172835,84.09074074074074,0)" xlink:href="#W"/><use transform="matrix(0.056172839506172835,0,0,0.056172839506172835,96.39259259259259,0)" xlink:href="#N"/></g><g id="o"><use transform="matrix(0.056172839506172835,0,0,0.056172839506172835,0,0)" xlink:href="#K"/><use transform="matrix(0.056172839506172835,0,0,0.056172839506172835,12.30185185185185,0)" xlink:href="#P"/></g><path fill="#333" d="M24 0v-248h52V0H24" id="aC"/><g id="p"><use transform="matrix(0.056172839506172835,0,0,0.056172839506172835,0,0)" xlink:href="#aC"/><use transform="matrix(0.056172839506172835,0,0,0.056172839506172835,5.617283950617283,0)" xlink:href="#K"/><use transform="matrix(0.056172839506172835,0,0,0.056172839506172835,17.919135802469135,0)" xlink:href="#L"/><use transform="matrix(0.056172839506172835,0,0,0.056172839506172835,24.6037037037037,0)" xlink:href="#M"/><use transform="matrix(0.056172839506172835,0,0,0.056172839506172835,35.83827160493827,0)" xlink:href="#N"/><use transform="matrix(0.056172839506172835,0,0,0.056172839506172835,43.70246913580247,0)" xlink:href="#K"/><use transform="matrix(0.056172839506172835,0,0,0.056172839506172835,56.00432098765432,0)" xlink:href="#M"/><use transform="matrix(0.056172839506172835,0,0,0.056172839506172835,67.23888888888888,0)" xlink:href="#L"/></g><path d="M827 0L592-444 183 0H-11l523-556-295-526h199l218 421 380-421h201L716-558 1028 0H827" id="aD"/><path d="M809-1104c212 0 310 122 306 343-4 250-95 524-208 640C818-30 715 20 589 20c-161 0-261-59-300-184-11 55-26 116-41 164H74c18-68 35-148 49-223l245-1261h180c-39 193-73 391-116 580h4c79-124 190-200 373-200zM348-430c-24 189 33 326 217 317 240-12 292-213 339-427 14-65 21-126 22-196 0-150-52-229-193-229-257 0-320 212-371 441-7 34-11 65-14 94" id="aE"/><path d="M779-1349c276-3 478 117 419 404-54 263-252 422-569 431H348L248 0H57l262-1349h460zM631-665c230-6 380-118 380-337 0-148-118-194-285-194H480L377-665h254" id="aF"/><g id="q"><use transform="matrix(0.008854166666666666,0,0,0.008854166666666666,0,0)" xlink:href="#ai"/><use transform="matrix(0.008854166666666666,0,0,0.008854166666666666,10.881770833333333,0)" xlink:href="#aD"/><use transform="matrix(0.008854166666666666,0,0,0.008854166666666666,21.763541666666665,0)" xlink:href="#ab"/><use transform="matrix(0.008854166666666666,0,0,0.008854166666666666,32.645312499999996,0)" xlink:href="#aE"/><use transform="matrix(0.008854166666666666,0,0,0.008854166666666666,43.52708333333333,0)" xlink:href="#ab"/><use transform="matrix(0.008854166666666666,0,0,0.008854166666666666,54.408854166666664,0)" xlink:href="#ae"/><use transform="matrix(0.008854166666666666,0,0,0.008854166666666666,65.29062499999999,0)" xlink:href="#aF"/><use transform="matrix(0.008854166666666666,0,0,0.008854166666666666,76.17239583333333,0)" xlink:href="#ad"/><use transform="matrix(0.008854166666666666,0,0,0.008854166666666666,87.05416666666666,0)" xlink:href="#ac"/><use transform="matrix(0.008854166666666666,0,0,0.008854166666666666,97.9359375,0)" xlink:href="#ab"/><use transform="matrix(0.008854166666666666,0,0,0.008854166666666666,108.81770833333333,0)" xlink:href="#aj"/><use transform="matrix(0.008854166666666666,0,0,0.008854166666666666,119.69947916666666,0)" xlink:href="#ad"/><use transform="matrix(0.008854166666666666,0,0,0.008854166666666666,130.58124999999998,0)" xlink:href="#af"/><use transform="matrix(0.008854166666666666,0,0,0.008854166666666666,141.4630208333333,0)" xlink:href="#ag"/></g><path d="M731 0L431-1130c-8 85-19 175-34 254L227 0H57l262-1349h222L848-211c8-92 19-186 35-274l168-864h172L961 0H731" id="aG"/><path d="M610 0H397L174-1082h202l131 704c10 72 16 162 23 237 161-331 356-627 533-941h201" id="aH"/><path d="M929 0l-64-382H302L91 0h-196l772-1349h217L1123 0H929zm-84-531c-33-225-70-447-100-674-114 230-242 451-363 674h463" id="aI"/><g id="r"><use transform="matrix(0.008854166666666666,0,0,0.008854166666666666,0,0)" xlink:href="#ad"/><use transform="matrix(0.008854166666666666,0,0,0.008854166666666666,10.881770833333333,0)" xlink:href="#ak"/><use transform="matrix(0.008854166666666666,0,0,0.008854166666666666,21.763541666666665,0)" xlink:href="#ab"/><use transform="matrix(0.008854166666666666,0,0,0.008854166666666666,32.645312499999996,0)" xlink:href="#al"/><use transform="matrix(0.008854166666666666,0,0,0.008854166666666666,43.52708333333333,0)" xlink:href="#ab"/><use transform="matrix(0.008854166666666666,0,0,0.008854166666666666,54.408854166666664,0)" xlink:href="#an"/><use transform="matrix(0.008854166666666666,0,0,0.008854166666666666,65.29062499999999,0)" xlink:href="#aj"/><use transform="matrix(0.008854166666666666,0,0,0.008854166666666666,76.17239583333333,0)" xlink:href="#ad"/><use transform="matrix(0.008854166666666666,0,0,0.008854166666666666,87.05416666666666,0)" xlink:href="#ae"/><use transform="matrix(0.008854166666666666,0,0,0.008854166666666666,97.9359375,0)" xlink:href="#aG"/><use transform="matrix(0.008854166666666666,0,0,0.008854166666666666,108.81770833333333,0)" xlink:href="#an"/><use transform="matrix(0.008854166666666666,0,0,0.008854166666666666,119.69947916666666,0)" xlink:href="#aH"/><use transform="matrix(0.008854166666666666,0,0,0.008854166666666666,130.58124999999998,0)" xlink:href="#ad"/><use transform="matrix(0.008854166666666666,0,0,0.008854166666666666,141.4630208333333,0)" xlink:href="#aI"/><use transform="matrix(0.008854166666666666,0,0,0.008854166666666666,152.34479166666662,0)" xlink:href="#aE"/><use transform="matrix(0.008854166666666666,0,0,0.008854166666666666,163.22656249999994,0)" xlink:href="#ad"/><use transform="matrix(0.008854166666666666,0,0,0.008854166666666666,174.10833333333326,0)" xlink:href="#af"/><use transform="matrix(0.008854166666666666,0,0,0.008854166666666666,184.99010416666658,0)" xlink:href="#ag"/></g><g id="s"><use transform="matrix(0.008854166666666666,0,0,0.008854166666666666,0,0)" xlink:href="#ad"/><use transform="matrix(0.008854166666666666,0,0,0.008854166666666666,10.881770833333333,0)" xlink:href="#ah"/><use transform="matrix(0.008854166666666666,0,0,0.008854166666666666,21.763541666666665,0)" xlink:href="#aw"/><use transform="matrix(0.008854166666666666,0,0,0.008854166666666666,32.645312499999996,0)" xlink:href="#ad"/><use transform="matrix(0.008854166666666666,0,0,0.008854166666666666,43.52708333333333,0)" xlink:href="#aa"/><use transform="matrix(0.008854166666666666,0,0,0.008854166666666666,54.408854166666664,0)" xlink:href="#ab"/><use transform="matrix(0.008854166666666666,0,0,0.008854166666666666,65.29062499999999,0)" xlink:href="#ap"/><use transform="matrix(0.008854166666666666,0,0,0.008854166666666666,76.17239583333333,0)" xlink:href="#ad"/><use transform="matrix(0.008854166666666666,0,0,0.008854166666666666,87.05416666666666,0)" xlink:href="#ae"/><use transform="matrix(0.008854166666666666,0,0,0.008854166666666666,97.9359375,0)" xlink:href="#aF"/><use transform="matrix(0.008854166666666666,0,0,0.008854166666666666,108.81770833333333,0)" xlink:href="#ad"/><use transform="matrix(0.008854166666666666,0,0,0.008854166666666666,119.69947916666666,0)" xlink:href="#ac"/><use transform="matrix(0.008854166666666666,0,0,0.008854166666666666,130.58124999999998,0)" xlink:href="#ab"/><use transform="matrix(0.008854166666666666,0,0,0.008854166666666666,141.4630208333333,0)" xlink:href="#aj"/><use transform="matrix(0.008854166666666666,0,0,0.008854166666666666,152.34479166666662,0)" xlink:href="#ad"/><use transform="matrix(0.008854166666666666,0,0,0.008854166666666666,163.22656249999994,0)" xlink:href="#af"/><use transform="matrix(0.008854166666666666,0,0,0.008854166666666666,174.10833333333326,0)" xlink:href="#ag"/></g><path fill="#a9afb8" d="M24-248c120-7 223 5 221 122C244-46 201 0 124 0H24v-248zM76-40c74 7 117-18 117-86 0-67-45-88-117-82v168" id="aJ"/><path fill="#a9afb8" d="M25-224v-37h50v37H25zM25 0v-190h50V0H25" id="aK"/><path fill="#a9afb8" d="M133-34C117-15 103 5 69 4 32 3 11-16 11-54c-1-60 55-63 116-61 1-26-3-47-28-47-18 1-26 9-28 27l-52-2c7-38 36-58 82-57s74 22 75 68l1 82c-1 14 12 18 25 15v27c-30 8-71 5-69-32zm-48 3c29 0 43-24 42-57-32 0-66-3-65 30 0 17 8 27 23 27" id="aL"/><path fill="#a9afb8" d="M195-6C206 82 75 100 31 46c-4-6-6-13-8-21l49-6c3 16 16 24 34 25 40 0 42-37 40-79-11 22-30 35-61 35-53 0-70-43-70-97 0-56 18-96 73-97 30 0 46 14 59 34l2-30h47zm-90-29c32 0 41-27 41-63 0-35-9-62-40-62-32 0-39 29-40 63 0 36 9 62 39 62" id="aM"/><path fill="#a9afb8" d="M135-150c-39-12-60 13-60 57V0H25l-1-190h47c2 13-1 29 3 40 6-28 27-53 61-41v41" id="aN"/><path fill="#a9afb8" d="M220-157c-53 9-28 100-34 157h-49v-107c1-27-5-49-29-50C55-147 81-57 75 0H25l-1-190h47c2 12-1 28 3 38 10-53 101-56 108 0 13-22 24-43 59-42 82 1 51 116 57 194h-49v-107c-1-25-5-48-29-50" id="aO"/><g id="t"><use transform="matrix(0.0728395061728395,0,0,0.0728395061728395,0,0)" xlink:href="#aJ"/><use transform="matrix(0.0728395061728395,0,0,0.0728395061728395,18.86543209876543,0)" xlink:href="#aK"/><use transform="matrix(0.0728395061728395,0,0,0.0728395061728395,26.14938271604938,0)" xlink:href="#aL"/><use transform="matrix(0.0728395061728395,0,0,0.0728395061728395,40.717283950617286,0)" xlink:href="#aM"/><use transform="matrix(0.0728395061728395,0,0,0.0728395061728395,56.66913580246913,0)" xlink:href="#aN"/><use transform="matrix(0.0728395061728395,0,0,0.0728395061728395,66.86666666666666,0)" xlink:href="#aL"/><use transform="matrix(0.0728395061728395,0,0,0.0728395061728395,81.43456790123457,0)" xlink:href="#aO"/><use transform="matrix(0.0728395061728395,0,0,0.0728395061728395,104.7432098765432,0)" xlink:href="#aL"/></g><path fill="#a9afb8" d="M24 0v-248h52v208h133V0H24" id="aP"/><path fill="#a9afb8" d="M135-194c87-1 58 113 63 194h-50c-7-57 23-157-34-157-59 0-34 97-39 157H25l-1-190h47c2 12-1 28 3 38 12-26 28-41 61-42" id="aQ"/><path fill="#a9afb8" d="M190-63c-7 42-38 67-86 67-59 0-84-38-90-98-12-110 154-137 174-36l-49 2c-2-19-15-32-35-32-30 0-35 28-38 64-6 74 65 87 74 30zm-84 77c20 1 33 9 33 27 0 32-36 36-71 33V53c15 1 39 4 39-11 0-13-16-12-31-12L87 0h25" id="aR"/><path fill="#a9afb8" d="M185-48c-13 30-37 53-82 52C43 2 14-33 14-96s30-98 90-98c62 0 83 45 84 108H66c0 31 8 55 39 56 18 0 30-7 34-22zm-45-69c5-46-57-63-70-21-2 6-4 13-4 21h74" id="aS"/><path fill="#a9afb8" d="M115-3C79 11 28 4 28-45v-112H4v-33h27l15-45h31v45h36v33H77v99c-1 23 16 31 38 25v30" id="aT"/><path fill="#a9afb8" d="M110-194c64 0 96 36 96 99 0 64-35 99-97 99-61 0-95-36-95-99 0-62 34-99 96-99zm-1 164c35 0 45-28 45-65 0-40-10-65-43-65-34 0-45 26-45 65 0 36 10 65 43 65" id="aU"/><g id="u"><use transform="matrix(0.0728395061728395,0,0,0.0728395061728395,0,0)" xlink:href="#aP"/><use transform="matrix(0.0728395061728395,0,0,0.0728395061728395,15.95185185185185,0)" xlink:href="#aL"/><use transform="matrix(0.0728395061728395,0,0,0.0728395061728395,30.51975308641975,0)" xlink:href="#aQ"/><use transform="matrix(0.0728395061728395,0,0,0.0728395061728395,46.471604938271604,0)" xlink:href="#aR"/><use transform="matrix(0.0728395061728395,0,0,0.0728395061728395,61.0395061728395,0)" xlink:href="#aL"/><use transform="matrix(0.0728395061728395,0,0,0.0728395061728395,75.60740740740741,0)" xlink:href="#aO"/><use transform="matrix(0.0728395061728395,0,0,0.0728395061728395,98.91604938271605,0)" xlink:href="#aS"/><use transform="matrix(0.0728395061728395,0,0,0.0728395061728395,113.48395061728395,0)" xlink:href="#aT"/><use transform="matrix(0.0728395061728395,0,0,0.0728395061728395,122.15185185185187,0)" xlink:href="#aU"/></g><path fill="#a9afb8" d="M24-248c93 1 206-16 204 79-1 75-69 88-152 82V0H24v-248zm52 121c47 0 100 7 100-41 0-47-54-39-100-39v80" id="aV"/><path fill="#a9afb8" d="M114-157C55-157 80-60 75 0H25v-261h50l-1 109c12-26 28-41 61-42 86-1 58 113 63 194h-50c-7-57 23-157-34-157" id="aW"/><g id="v"><use transform="matrix(0.0728395061728395,0,0,0.0728395061728395,0,0)" xlink:href="#aK"/><use transform="matrix(0.0728395061728395,0,0,0.0728395061728395,7.28395061728395,0)" xlink:href="#aV"/><use transform="matrix(0.0728395061728395,0,0,0.0728395061728395,24.76543209876543,0)" xlink:href="#aW"/><use transform="matrix(0.0728395061728395,0,0,0.0728395061728395,40.717283950617286,0)" xlink:href="#aU"/><use transform="matrix(0.0728395061728395,0,0,0.0728395061728395,56.66913580246913,0)" xlink:href="#aQ"/><use transform="matrix(0.0728395061728395,0,0,0.0728395061728395,72.62098765432098,0)" xlink:href="#aS"/></g><path fill="#a9afb8" d="M182-182c0 78-84 86-111 141h115V0H12c-6-101 99-100 120-180 1-22-12-31-33-32-23 0-32 14-35 34l-49-3c5-45 32-70 84-70 51 0 83 22 83 69" id="aX"/><path fill="#a9afb8" d="M101-251c68 0 84 54 84 127C185-50 166 4 99 4S15-52 14-124c-1-75 17-127 87-127zm-1 216c37-5 36-46 36-89s4-89-36-89c-39 0-36 45-36 89 0 43-3 85 36 89" id="aY"/><path fill="#a9afb8" d="M23 0v-37h61v-169l-59 37v-38l62-41h46v211h57V0H23" id="aZ"/><path fill="#a9afb8" d="M52 0c1-96 47-148 87-207H15v-41h169v40c-36 62-79 113-81 208H52" id="ba"/><g id="w"><use transform="matrix(0.0728395061728395,0,0,0.0728395061728395,0,0)" xlink:href="#aX"/><use transform="matrix(0.0728395061728395,0,0,0.0728395061728395,14.5679012345679,0)" xlink:href="#aY"/><use transform="matrix(0.0728395061728395,0,0,0.0728395061728395,29.1358024691358,0)" xlink:href="#aZ"/><use transform="matrix(0.0728395061728395,0,0,0.0728395061728395,43.7037037037037,0)" xlink:href="#ba"/></g><path fill="#a9afb8" d="M240 0l2-218c-23 76-54 145-80 218h-23L58-218 59 0H30v-248h44l77 211c21-75 51-140 76-211h43V0h-30" id="bb"/><path fill="#a9afb8" d="M141-36C126-15 110 5 73 4 37 3 15-17 15-53c-1-64 63-63 125-63 3-35-9-54-41-54-24 1-41 7-42 31l-33-3c5-37 33-52 76-52 45 0 72 20 72 64v82c-1 20 7 32 28 27v20c-31 9-61-2-59-35zM48-53c0 20 12 33 32 33 41-3 63-29 60-74-43 2-92-5-92 41" id="bc"/><path fill="#a9afb8" d="M114-163C36-179 61-72 57 0H25l-1-190h30c1 12-1 29 2 39 6-27 23-49 58-41v29" id="bd"/><path fill="#a9afb8" d="M96-169c-40 0-48 33-48 73s9 75 48 75c24 0 41-14 43-38l32 2c-6 37-31 61-74 61-59 0-76-41-82-99-10-93 101-131 147-64 4 7 5 14 7 22l-32 3c-4-21-16-35-41-35" id="be"/><path fill="#a9afb8" d="M100-194c63 0 86 42 84 106H49c0 40 14 67 53 68 26 1 43-12 49-29l28 8c-11 28-37 45-77 45C44 4 14-33 15-96c1-61 26-98 85-98zm52 81c6-60-76-77-97-28-3 7-6 17-6 28h103" id="bf"/><path fill="#a9afb8" d="M24 0v-261h32V0H24" id="bg"/><path fill="#a9afb8" d="M100-194c62-1 85 37 85 99 1 63-27 99-86 99S16-35 15-95c0-66 28-99 85-99zM99-20c44 1 53-31 53-75 0-43-8-75-51-75s-53 32-53 75 10 74 51 75" id="bh"/><g id="x"><use transform="matrix(0.04248971193415638,0,0,0.04248971193415638,0,0)" xlink:href="#bb"/><use transform="matrix(0.04248971193415638,0,0,0.04248971193415638,12.704423868312757,0)" xlink:href="#bc"/><use transform="matrix(0.04248971193415638,0,0,0.04248971193415638,21.20236625514403,0)" xlink:href="#bd"/><use transform="matrix(0.04248971193415638,0,0,0.04248971193415638,26.25864197530864,0)" xlink:href="#be"/><use transform="matrix(0.04248971193415638,0,0,0.04248971193415638,33.90679012345679,0)" xlink:href="#bf"/><use transform="matrix(0.04248971193415638,0,0,0.04248971193415638,42.40473251028806,0)" xlink:href="#bg"/><use transform="matrix(0.04248971193415638,0,0,0.04248971193415638,45.761419753086415,0)" xlink:href="#bh"/></g><path fill="#a9afb8" d="M85-194c31 0 48 13 60 33l-1-100h32l1 261h-30c-2-10 0-23-3-31C134-8 116 4 85 4 32 4 16-35 15-94c0-66 23-100 70-100zm9 24c-40 0-46 34-46 75 0 40 6 74 45 74 42 0 51-32 51-76 0-42-9-74-50-73" id="bi"/><g id="y"><use transform="matrix(0.04248971193415638,0,0,0.04248971193415638,0,0)" xlink:href="#bi"/><use transform="matrix(0.04248971193415638,0,0,0.04248971193415638,8.497942386831275,0)" xlink:href="#bc"/></g><path fill="#a9afb8" d="M185-189c-5-48-123-54-124 2 14 75 158 14 163 119 3 78-121 87-175 55-17-10-28-26-33-46l33-7c5 56 141 63 141-1 0-78-155-14-162-118-5-82 145-84 179-34 5 7 8 16 11 25" id="bj"/><path fill="#a9afb8" d="M24-231v-30h32v30H24zM24 0v-190h32V0H24" id="bk"/><path fill="#a9afb8" d="M108 0H70L1-190h34L89-25l56-165h34" id="bl"/><g id="z"><use transform="matrix(0.04248971193415638,0,0,0.04248971193415638,0,0)" xlink:href="#bj"/><use transform="matrix(0.04248971193415638,0,0,0.04248971193415638,10.19753086419753,0)" xlink:href="#bk"/><use transform="matrix(0.04248971193415638,0,0,0.04248971193415638,13.554218106995881,0)" xlink:href="#bg"/><use transform="matrix(0.04248971193415638,0,0,0.04248971193415638,16.910905349794238,0)" xlink:href="#bl"/><use transform="matrix(0.04248971193415638,0,0,0.04248971193415638,24.559053497942386,0)" xlink:href="#bc"/></g><path fill="#a9afb8" d="M137 0h-34L2-248h35l83 218 83-218h36" id="bm"/><path fill="#a9afb8" d="M117-194c89-4 53 116 60 194h-32v-121c0-31-8-49-39-48C34-167 62-67 57 0H25l-1-190h30c1 10-1 24 2 32 11-22 29-35 61-36" id="bn"/><g id="A"><use transform="matrix(0.04248971193415638,0,0,0.04248971193415638,0,0)" xlink:href="#bm"/><use transform="matrix(0.04248971193415638,0,0,0.04248971193415638,9.900102880658435,0)" xlink:href="#bk"/><use transform="matrix(0.04248971193415638,0,0,0.04248971193415638,13.25679012345679,0)" xlink:href="#bc"/><use transform="matrix(0.04248971193415638,0,0,0.04248971193415638,21.754732510288065,0)" xlink:href="#bn"/><use transform="matrix(0.04248971193415638,0,0,0.04248971193415638,30.25267489711934,0)" xlink:href="#bc"/></g><path fill="#a9afb8" d="M32 76v-337h29V76H32" id="bo"/><use transform="matrix(0.04248971193415638,0,0,0.04248971193415638,0,0)" xlink:href="#bo" id="B"/><path fill="#a9afb8" d="M153-248C145-148 188 4 80 4 36 3 13-21 6-62l32-5c4 25 16 42 43 43 27 0 39-20 39-49v-147H72v-28h81" id="bp"/><path fill="#a9afb8" d="M84 4C-5 8 30-112 23-190h32v120c0 31 7 50 39 49 72-2 45-101 50-169h31l1 190h-30c-1-10 1-25-2-33-11 22-28 36-60 37" id="bq"/><g id="C"><use transform="matrix(0.04248971193415638,0,0,0.04248971193415638,0,0)" xlink:href="#bp"/><use transform="matrix(0.04248971193415638,0,0,0.04248971193415638,7.648148148148148,0)" xlink:href="#bq"/><use transform="matrix(0.04248971193415638,0,0,0.04248971193415638,16.14609053497942,0)" xlink:href="#bn"/><use transform="matrix(0.04248971193415638,0,0,0.04248971193415638,24.644032921810698,0)" xlink:href="#bf"/></g><path fill="#a9afb8" d="M27 0v-27h64v-190l-56 39v-29l58-41h29v221h61V0H27" id="br"/><path fill="#a9afb8" d="M126-127c33 6 58 20 58 59 0 88-139 92-164 29-3-8-5-16-6-25l32-3c6 27 21 44 54 44 32 0 52-15 52-46 0-38-36-46-79-43v-28c39 1 72-4 72-42 0-27-17-43-46-43-28 0-47 15-49 41l-32-3c6-42 35-63 81-64 48-1 79 21 79 65 0 36-21 52-52 59" id="bs"/><path fill="#a9afb8" d="M68-38c1 34 0 65-14 84H32c9-13 17-26 17-46H33v-38h35" id="bt"/><g id="D"><use transform="matrix(0.04248971193415638,0,0,0.04248971193415638,0,0)" xlink:href="#br"/><use transform="matrix(0.04248971193415638,0,0,0.04248971193415638,8.497942386831275,0)" xlink:href="#bs"/><use transform="matrix(0.04248971193415638,0,0,0.04248971193415638,16.99588477366255,0)" xlink:href="#bt"/></g><path fill="#a9afb8" d="M101-251c82-7 93 87 43 132L82-64C71-53 59-42 53-27h129V0H18c2-99 128-94 128-182 0-28-16-43-45-43s-46 15-49 41l-32-3c6-41 34-60 81-64" id="bu"/><path fill="#a9afb8" d="M101-251c68 0 85 55 85 127S166 4 100 4C33 4 14-52 14-124c0-73 17-127 87-127zm-1 229c47 0 54-49 54-102s-4-102-53-102c-51 0-55 48-55 102 0 53 5 102 54 102" id="bv"/><path fill="#a9afb8" d="M155-56V0h-30v-56H8v-25l114-167h33v167h35v25h-35zm-30-156c-27 46-58 90-88 131h88v-131" id="bw"/><g id="E"><use transform="matrix(0.04248971193415638,0,0,0.04248971193415638,0,0)" xlink:href="#bu"/><use transform="matrix(0.04248971193415638,0,0,0.04248971193415638,8.497942386831275,0)" xlink:href="#bv"/><use transform="matrix(0.04248971193415638,0,0,0.04248971193415638,16.99588477366255,0)" xlink:href="#bu"/><use transform="matrix(0.04248971193415638,0,0,0.04248971193415638,25.493827160493822,0)" xlink:href="#bw"/></g><path fill="#333" d="M24-248c93 1 206-16 204 79-1 75-69 88-152 82V0H24v-248zm52 121c47 0 100 7 100-41 0-47-54-39-100-39v80" id="bx"/><g id="F"><use transform="matrix(0.056172839506172835,0,0,0.056172839506172835,0,0)" xlink:href="#J"/><use transform="matrix(0.056172839506172835,0,0,0.056172839506172835,5.617283950617283,0)" xlink:href="#bx"/><use transform="matrix(0.056172839506172835,0,0,0.056172839506172835,19.098765432098766,0)" xlink:href="#V"/><use transform="matrix(0.056172839506172835,0,0,0.056172839506172835,31.400617283950616,0)" xlink:href="#W"/><use transform="matrix(0.056172839506172835,0,0,0.056172839506172835,43.70246913580247,0)" xlink:href="#K"/><use transform="matrix(0.056172839506172835,0,0,0.056172839506172835,56.00432098765432,0)" xlink:href="#M"/></g><g id="G"><use transform="matrix(0.008854166666666666,0,0,0.008854166666666666,0,0)" xlink:href="#ax"/><use transform="matrix(0.008854166666666666,0,0,0.008854166666666666,10.881770833333333,0)" xlink:href="#ai"/><use transform="matrix(0.008854166666666666,0,0,0.008854166666666666,21.763541666666665,0)" xlink:href="#aa"/><use transform="matrix(0.008854166666666666,0,0,0.008854166666666666,32.645312499999996,0)" xlink:href="#ai"/><use transform="matrix(0.008854166666666666,0,0,0.008854166666666666,43.52708333333333,0)" xlink:href="#al"/><use transform="matrix(0.008854166666666666,0,0,0.008854166666666666,54.408854166666664,0)" xlink:href="#ab"/><use transform="matrix(0.008854166666666666,0,0,0.008854166666666666,65.29062499999999,0)" xlink:href="#an"/><use transform="matrix(0.008854166666666666,0,0,0.008854166666666666,76.17239583333333,0)" xlink:href="#aj"/><use transform="matrix(0.008854166666666666,0,0,0.008854166666666666,87.05416666666666,0)" xlink:href="#ad"/><use transform="matrix(0.008854166666666666,0,0,0.008854166666666666,97.9359375,0)" xlink:href="#ae"/><use transform="matrix(0.008854166666666666,0,0,0.008854166666666666,108.81770833333333,0)" xlink:href="#ay"/><use transform="matrix(0.008854166666666666,0,0,0.008854166666666666,119.69947916666666,0)" xlink:href="#aw"/><use transform="matrix(0.008854166666666666,0,0,0.008854166666666666,130.58124999999998,0)" xlink:href="#ax"/><use transform="matrix(0.008854166666666666,0,0,0.008854166666666666,141.4630208333333,0)" xlink:href="#ab"/><use transform="matrix(0.008854166666666666,0,0,0.008854166666666666,152.34479166666662,0)" xlink:href="#al"/><use transform="matrix(0.008854166666666666,0,0,0.008854166666666666,163.22656249999994,0)" xlink:href="#ad"/><use transform="matrix(0.008854166666666666,0,0,0.008854166666666666,174.10833333333326,0)" xlink:href="#af"/><use transform="matrix(0.008854166666666666,0,0,0.008854166666666666,184.99010416666658,0)" xlink:href="#ag"/></g><g id="H"><use transform="matrix(0.008854166666666666,0,0,0.008854166666666666,0,0)" xlink:href="#ab"/><use transform="matrix(0.008854166666666666,0,0,0.008854166666666666,10.881770833333333,0)" xlink:href="#aj"/><use transform="matrix(0.008854166666666666,0,0,0.008854166666666666,21.763541666666665,0)" xlink:href="#ab"/><use transform="matrix(0.008854166666666666,0,0,0.008854166666666666,32.645312499999996,0)" xlink:href="#al"/><use transform="matrix(0.008854166666666666,0,0,0.008854166666666666,43.52708333333333,0)" xlink:href="#ab"/><use transform="matrix(0.008854166666666666,0,0,0.008854166666666666,54.408854166666664,0)" xlink:href="#ad"/><use transform="matrix(0.008854166666666666,0,0,0.008854166666666666,65.29062499999999,0)" xlink:href="#ae"/><use transform="matrix(0.008854166666666666,0,0,0.008854166666666666,76.17239583333333,0)" xlink:href="#am"/><use transform="matrix(0.008854166666666666,0,0,0.008854166666666666,87.05416666666666,0)" xlink:href="#an"/><use transform="matrix(0.008854166666666666,0,0,0.008854166666666666,97.9359375,0)" xlink:href="#ae"/><use transform="matrix(0.008854166666666666,0,0,0.008854166666666666,108.81770833333333,0)" xlink:href="#ae"/><use transform="matrix(0.008854166666666666,0,0,0.008854166666666666,119.69947916666666,0)" xlink:href="#ai"/><use transform="matrix(0.008854166666666666,0,0,0.008854166666666666,130.58124999999998,0)" xlink:href="#ab"/><use transform="matrix(0.008854166666666666,0,0,0.008854166666666666,141.4630208333333,0)" xlink:href="#an"/><use transform="matrix(0.008854166666666666,0,0,0.008854166666666666,152.34479166666662,0)" xlink:href="#ao"/><use transform="matrix(0.008854166666666666,0,0,0.008854166666666666,163.22656249999994,0)" xlink:href="#an"/><use transform="matrix(0.008854166666666666,0,0,0.008854166666666666,174.10833333333326,0)" xlink:href="#ap"/><use transform="matrix(0.008854166666666666,0,0,0.008854166666666666,184.99010416666658,0)" xlink:href="#af"/><use transform="matrix(0.008854166666666666,0,0,0.008854166666666666,195.8718749999999,0)" xlink:href="#ag"/></g></defs></g></svg>